<svg data-v-423bf9ae="" xmlns="http://www.w3.org/2000/svg" viewBox="0 0 355.9597984574629 60" class="font"><!----><!----><!----><g data-v-423bf9ae="" id="f22a9bf2-f582-4c5f-aef0-574b32983cf4" fill="black" transform="matrix(6.0301508693628145,0,0,6.0301508693628145,-5.005022322423258,-19.778893963730297)"><path d="M0.83 13.12L4.06 13.12L4.06 13.09C3.70 12.85 3.35 12.18 3.35 11.02L3.35 8.64C3.35 7.63 3.32 6.72 3.09 5.39L3.15 5.39C3.57 6.68 3.93 7.50 4.61 8.58L6.58 11.79C6.86 12.24 7.13 12.74 7.28 13.12L10.23 13.12L10.23 13.09C9.87 12.85 9.48 12.17 9.48 11.02L9.48 5.49C9.48 4.34 9.87 3.65 10.23 3.42L10.23 3.39L7 3.39L7 3.42C7.36 3.65 7.71 4.33 7.71 5.49L7.71 8.01C7.71 8.79 7.74 9.77 7.94 10.89L7.88 10.89C7.46 9.81 7.01 8.82 6.59 8.12L4.58 4.73C4.12 3.96 4.03 3.67 4.00 3.39L0.83 3.39L0.83 3.42C1.34 3.77 1.58 4.66 1.58 5.42L1.58 11.02C1.58 12.17 1.18 12.85 0.83 13.09ZM18.90 10.43C18.30 11.28 17.32 11.75 16.09 11.75L14.56 11.75L14.56 8.60L15.85 8.60C16.63 8.60 17.14 8.85 17.37 9.48L17.40 9.48L17.81 7.13C17.18 7.21 16.79 7.22 15.62 7.22L14.56 7.22L14.56 4.76L16.41 4.76C17.50 4.76 18.27 5.11 18.61 5.80L18.63 5.78L18.40 3.28C18.09 3.35 17.47 3.39 16.91 3.39L11.89 3.39L11.89 3.42C12.25 3.65 12.64 4.33 12.64 5.49L12.64 11.02C12.64 12.17 12.24 12.85 11.89 13.09L11.89 13.12L16.83 13.12C17.65 13.12 18.02 13.15 18.54 13.23L18.93 10.44ZM27.23 3.28C26.59 3.36 26.00 3.39 25.31 3.39L21.90 3.39C21.21 3.39 20.62 3.36 19.98 3.28L19.74 5.84L19.77 5.85C20.09 5.29 20.75 4.82 21.59 4.82L22.65 4.82L22.65 10.91C22.65 12.10 22.20 12.85 21.80 13.09L21.80 13.12L25.42 13.12L25.42 13.09C24.96 12.85 24.57 12.11 24.57 10.91L24.57 4.82L25.62 4.82C26.46 4.82 27.12 5.29 27.44 5.85L27.47 5.84ZM28.57 13.12L32.02 13.12L32.02 13.09C31.65 12.85 31.26 12.18 31.26 11.02L31.26 5.49C31.26 4.34 31.67 3.65 32.02 3.42L32.02 3.39L28.57 3.39L28.57 3.42C28.94 3.65 29.33 4.33 29.33 5.49L29.33 11.02C29.33 12.17 28.92 12.85 28.57 13.09ZM40.87 10.44C40.31 11.24 39.30 11.73 38.02 11.73L35.88 11.73L40.66 3.42L40.66 3.39L36.05 3.39C34.99 3.39 34.50 3.37 33.96 3.30L33.59 5.71L33.61 5.73C34.10 5.03 34.93 4.77 36.01 4.77L37.76 4.77L32.98 13.09L32.98 13.12L38.65 13.12C39.70 13.12 39.93 13.13 40.53 13.23L40.89 10.46ZM49.07 10.43C48.47 11.28 47.49 11.75 46.26 11.75L44.73 11.75L44.73 8.60L46.02 8.60C46.80 8.60 47.31 8.85 47.54 9.48L47.57 9.48L47.98 7.13C47.35 7.21 46.96 7.22 45.79 7.22L44.73 7.22L44.73 4.76L46.58 4.76C47.67 4.76 48.44 5.11 48.78 5.80L48.80 5.78L48.57 3.28C48.26 3.35 47.64 3.39 47.08 3.39L42.06 3.39L42.06 3.42C42.42 3.65 42.81 4.33 42.81 5.49L42.81 11.02C42.81 12.17 42.41 12.85 42.06 13.09L42.06 13.12L47.00 13.12C47.82 13.12 48.19 13.15 48.71 13.23L49.10 10.44ZM50.46 13.12L53.69 13.12L53.69 13.09C53.33 12.85 52.98 12.18 52.98 11.02L52.98 8.64C52.98 7.63 52.95 6.72 52.72 5.39L52.78 5.39C53.20 6.68 53.56 7.50 54.24 8.58L56.21 11.79C56.49 12.24 56.76 12.74 56.91 13.12L59.86 13.12L59.86 13.09C59.50 12.85 59.11 12.17 59.11 11.02L59.11 5.49C59.11 4.34 59.50 3.65 59.86 3.42L59.86 3.39L56.63 3.39L56.63 3.42C56.99 3.65 57.34 4.33 57.34 5.49L57.34 8.01C57.34 8.79 57.37 9.77 57.57 10.89L57.51 10.89C57.09 9.81 56.64 8.82 56.22 8.12L54.21 4.73C53.75 3.96 53.66 3.67 53.63 3.39L50.46 3.39L50.46 3.42C50.97 3.77 51.21 4.66 51.21 5.42L51.21 11.02C51.21 12.17 50.81 12.85 50.46 13.09Z"></path></g><!----><!----></svg>